<?xml version="1.0" encoding="utf-8"?>
<!-- Generator: Adobe Illustrator 25.2.0, SVG Export Plug-In . SVG Version: 6.00 Build 0)  -->
<svg version="1.1" id="Layer_1" xmlns="http://www.w3.org/2000/svg" xmlns:xlink="http://www.w3.org/1999/xlink" x="0px" y="0px"
	 viewBox="0 0 200.1 200.1" style="enable-background:new 0 0 200.1 200.1;" xml:space="preserve">
<style type="text/css">
	.st0{fill:#010101;}
	.st1{fill:#E8E7E9;}
	.st2{fill:#FFE86A;}
	.st3{fill:#B7ACB6;}
	.st4{fill:#FFDD00;}
	.st5{fill:#A999A7;}
	.st6{fill:#B5ABB5;}
	.st7{fill:#FFFFFF;}
</style>
<g id="SDvPa7_2_">
	<g>
		<path class="st0" d="M0.1,193.8c0.6-1.5,1-3,1.7-4.4c2-4,5.2-6.8,9.4-8.2c1.1-0.4,1.7-0.9,2.2-1.9c7.4-13.3,16.3-25.4,27.1-36.1
			c0.8-0.8,0.8-1.2,0-1.9c-2.4-2.2-4.6-4.4-4.7-7.9c-0.1-3.7,1.8-7,5.1-8.5c3.3-1.5,7-0.9,9.7,1.6c1,0.9,2,1.9,2.9,2.9
			c0.9,1,1.5,1,2.5,0.2c8-6.2,16.5-11.6,25.5-16.2c16.2-8.5,33.4-14.5,51.1-18.8c2-0.5,3.4,0.3,4.2,2.2c0.6,1.8-0.1,3.2-2.1,3.9
			c-1.6,0.6-3.3,0.9-4.9,1.3c-14.2,3.7-27.9,8.5-41.1,15c-13.6,6.7-26.3,15-37.6,25.1c-11.7,10.5-21.7,22.3-29.5,36
			c-0.8,1.2-0.5,1.7,1,1.7c4.5,0,9-0.1,13.4,0c2.9,0.1,4.2,1.2,4.5,4c-0.8,2.4-1.6,3-4.1,3c-6.2,0.1-12.3,0-18.5,0
			c-3.6,0-6.8,0.9-9.1,3.9c-0.5,0.6-1.4,1.3-1.1,2.2c0.4,0.9,1.5,0.5,2.3,0.5c52.8,0,105.6,0,158.4,0c0.8,0,1.6,0,2.3,0
			c1.8-0.1,3.5,0,5.3-0.1c2.1-0.1,3.7-1.6,3.7-3.3c0-1.7-1.5-3.1-3.6-3.2c-2.3-0.1-4.7-0.1-7-0.1c-39,0-77.9,0-116.9,0
			c-1.2,0-2.3,0-3.5,0c-2.3-0.5-2.8-1-3.2-3.3c0.3-2.3,1.4-3.3,3.6-3.6c1-0.1,1.9-0.1,2.9-0.1c39.2,0,78.4,0,117.6,0
			c2.4,0,3.8-0.5,5-2.9c3.4-6.6,8.9-10.5,16.4-11.2c1.8-0.2,2.1-0.5,1.5-2.4c-1.6-5.8-3.3-11.5-5-17.2c-4.3-14.7-8.6-29.4-12.9-44.1
			c-1.5-5.1-2.8-6-8.2-6c-6.6,0.7-13.2,1.4-19.7,2.6c-1.2,0.2-2.4,0.3-3.4-0.4c-0.8-0.6-1.6-1.2-1.3-2.4c0-2.1,0.9-3.2,3-3.6
			c7.5-1.3,14.9-2.7,22.5-2.8c1,0,1.7-0.3,2.4-1c1.2-1.2,2.4-2.6,3.8-3.6c2-1.3,4.2-1.9,6.5-1.3c1.1,0.3,1.6,0,2.3-0.8
			c2.5-3.1,5.1-6.1,7.6-9.2c3.8-4.8,4.7-10.1,2-15.6c-2.7-5.5-7.3-8.1-13.3-8.1c-10.3,0-20.5,0-30.8,0c-12.2,0-22-8-24.6-20
			c-2.9-13.2,6.4-26.9,19.8-29.2c1.5-0.3,3.1-0.4,4.6-0.4c16.1,0,32.2,0,48.3,0c1.7,0,2.8,0.6,3.3,2.2c0.4,1.3-0.1,2.4-1.2,3.2
			c-0.7,0.6-1.6,0.5-2.4,0.5c-15.8,0-31.6,0-47.3,0c-9.9,0-17.4,6.1-19.3,15.7c-2,9.9,5.7,20.6,15.8,21.7c5.5,0.6,11,0.2,16.5,0.3
			c6.2,0.1,12.3-0.1,18.5,0.1c8.1,0.2,14,4.2,17.5,11.3c3.6,7.2,2.8,14.4-1.9,20.9c-2.6,3.6-5.6,6.9-8.4,10.2
			c-0.6,0.7-0.7,1.2-0.4,2.2c1.5,3.7,1,7.4-2.1,9.9c-2.9,2.3-3,4.6-2,8c5.6,18.5,10.9,37,16.3,55.5c1.7,5.7-1.3,9.8-7.3,10.2
			c-5.3,0.3-9,3.2-11.4,7.9c-0.4,0.7-0.3,1,0.4,1.3c3.9,2,5.9,5.3,5.5,9.6c-0.4,4.3-2.9,7.2-7.2,8.5c-0.1,0-0.1,0.2-0.2,0.3
			c-59,0-118,0-176.9,0c-1.1-0.2-1.7-0.9-1.9-1.9C0.1,196.4,0.1,195.1,0.1,193.8z"/>
		<path class="st1" d="M0.1,197.7c0.5,0.8,1.2,1.4,1.9,1.9C0.4,200-0.3,199.3,0.1,197.7z"/>
		<path class="st2" d="M21.5,177.4c3.3-6.2,7.4-11.9,11.8-17.3c19.3-24,44.1-40.3,72.6-51.2c9.1-3.5,18.3-6.2,27.8-8.4
			c2.1-0.5,3.2-1.6,3.2-3.7c1.8-0.4,3.6-0.7,5.3-1.1c1.1,2.2,2,2.7,4.5,2.2c6.6-1.2,13.2-2,19.8-2.5c1,0.4,1.1,1.4,1.3,2.3
			c3.5,11.9,7,23.8,10.4,35.7c2.2,7.5,4.4,15.1,6.6,22.6c0.2,0.9,0.5,1.7,0.5,2.7c0.1,2.9-1.4,4.7-4.3,5c-2.9,0.3-5.8,0.8-8.4,2.4
			c-2.6,1.6-4.5,3.7-5.9,6.4c-2,3.8-5.3,5.5-9.5,5.7c-0.5,0-0.9,0-1.4,0c-43.8,0-87.6,0-131.3,0C23.6,178,22.4,178.3,21.5,177.4z"/>
		<path class="st3" d="M45.9,183.2c0.3,1.5,1,2.5,2.6,2.8c0.8,0.2,1.5,0.1,2.3,0.1c39,0,78,0,117,0c1.4,0,3.4-0.8,4,1.3
			c0.7,2.1,0.9,4.4-1,6.2c-0.6,0-1.3,0.1-1.9,0.1c-53.4,0-106.9,0-160.3,0c-0.6,0-1.3,0-1.9,0c1-4.6,5.2-7.7,10.4-7.7
			c6.4,0,12.7-0.1,19.1,0c2.2,0,3.6-0.6,4.1-2.9C42.1,182.4,44,182.4,45.9,183.2z"/>
		<path class="st4" d="M45.9,183.2c-1.9,0-3.7,0-5.6,0c-0.8-2.6-1.5-3-4.2-3c-4.7,0-9.4,0-14.1,0c-0.6,0-1.3,0.2-2-0.2
			c0.4-0.9,0.9-1.8,1.6-2.6c1.9,0,3.9,0,5.8,0c43.1,0,86.2,0,129.3,0c4.5,0,7.8-1.6,9.9-5.8c2.8-5.6,7.8-8.1,13.8-8.6
			c3.7-0.3,5.3-2.3,4.3-5.8c-2.9-9.9-5.8-19.8-8.6-29.8c-3.1-10.5-6.1-21.1-9.2-31.6c-0.1-0.2-0.2-0.3-0.3-0.5
			c5.2-0.5,7.3,0.9,8.7,5.8c6.1,20.9,12.2,41.8,18.3,62.7c0.5,1.6,0.1,2.2-1.5,2.3c-8.5,0.4-14,5-17.5,12.4
			c-0.6,1.4-1.3,1.7-2.7,1.7c-40.6,0-81.2,0-121.7,0C47.3,180.2,46.5,180.7,45.9,183.2z"/>
		<path class="st5" d="M170.8,193.7c0.7-2,1.2-4,0.5-6.1c-0.3-0.9-0.7-1.3-1.7-1.3c-0.5,0-1,0-1.6,0c-39.1,0-78.1,0-117.2,0
			c-0.8,0-1.7,0.3-2.4-0.3c40.7,0,81.5,0,122.2,0c1.9,0,3.8,0,5.6,0c2.4,0.1,4.1,1.7,4.1,3.8c0,2.2-1.8,3.9-4.2,3.9
			C174.4,193.8,172.6,193.7,170.8,193.7z"/>
		<path class="st3" d="M41.8,133.7c0-3.1,2.4-4.5,4.2-3.3c1.4,0.9,2.5,2.3,3.7,3.4c0.1,0.1,0.2,0.2,0.2,0.3
			c-0.8,1.6-2.4,2.4-3.6,3.6c-0.8,0.8-1.1-0.2-1.5-0.6C43.6,135.8,41.8,134.9,41.8,133.7z"/>
		<path class="st6" d="M178.7,89c1.7,0,2.9,1.2,3,2.7c0.1,1.1-1.3,3.3-2.1,3.5c-0.5,0.1-0.6-0.4-0.8-0.6c-0.7-0.8-1.4-1.8-2.3-2.4
			c-1.1-0.8-0.8-1.3,0-2C177.2,89.5,178,89.1,178.7,89z"/>
		<path class="st0" d="M155.2,109.2c5.8,0.5,8.4,2.8,9.8,8.5c2.4,9.8,4.8,19.6,7.2,29.4c1.5,6-1.9,11.1-8,11.7
			c-7,0.7-14.1,1-21.2,1.5c-9,0.6-18,1.2-27,1.8c-3.6,0.2-7.1,0.5-10.7,0.6c-5.5,0.2-9.8-2.3-13.5-6.3c-2.9-2.4-3.8-5.8-4-9.4
			c-0.5-7.7,2.9-13.4,9.7-17c17.4-9.4,35.7-16.4,55-20.7C153.3,109.1,154.2,108.7,155.2,109.2z"/>
		<path class="st4" d="M155.2,109.2c-10.9,2.4-21.5,5.4-31.9,9.4c-8.8,3.4-17.3,7.3-25.6,11.9c-9.7,5.3-12.4,16.1-6.3,25.3
			c0.1,0.2,0.3,0.4,0.4,0.7c-5.5-2.1-8.7-6.4-11-11.6c-3.8-8.3,1.6-15,7.1-17.9c12.9-6.9,26.4-12.3,40.2-17.1
			c6.4-2.2,13-3.3,19.7-3.7C150.7,105.9,153.1,107.2,155.2,109.2z"/>
		<path class="st7" d="M147.6,154.1c-0.4,0-0.6,0-0.7,0c-2.1,0.6-2.5-0.5-2.3-2.3c0.1-1.2,0.1-2.4-0.2-3.7c-0.8-2.8-2.9-4.5-5.8-4.6
			c-8.7,0-17.4,0-26.1,0c-3.4,0-5.9,2.6-6,6.1c0,1.9-0.1,3.9,0,5.8c0.1,1.2-0.4,1.4-1.4,1.4c-4.8,0-9.5-3.4-10.7-8.1
			c-1.3-5.1,0.8-10.1,5.5-12.7c8.6-4.8,17.6-8.9,26.9-12.4c8.8-3.3,17.9-5.9,27.1-8c3.3-0.7,4.5,0,5.3,3.3
			c2.4,9.7,4.7,19.4,7.1,29.2c0.8,3.4-0.1,4.7-3.6,5C157.5,153.4,152.4,153.7,147.6,154.1z"/>
		<path class="st3" d="M125.4,149.4c3.8,0,7.7,0.1,11.5,0c1.3,0,1.8,0.2,1.8,1.7c0,3.7,0,3.6-3.6,3.9c-6.9,0.4-13.7,0.9-20.6,1.5
			c-1.8,0.2-2.3-0.3-2.1-2c0.2-1.6-0.7-3.7,0.4-4.7c1-1,3.1-0.2,4.7-0.3C120.1,149.3,122.7,149.4,125.4,149.4z"/>
	</g>
</g>
</svg>
